<?xml version="1.0" standalone="no"?>
<!DOCTYPE svg PUBLIC "-//W3C//DTD SVG 20010904//EN"
 "http://www.w3.org/TR/2001/REC-SVG-20010904/DTD/svg10.dtd">
<svg version="1.0" xmlns="http://www.w3.org/2000/svg"
 width="1024.000000pt" height="1024.000000pt" viewBox="0 0 1024.000000 1024.000000"
 preserveAspectRatio="xMidYMid meet">
<metadata>
Created by potrace 1.14, written by Peter Selinger 2001-2017
</metadata>
<g transform="translate(0.000000,1024.000000) scale(0.100000,-0.100000)"
fill="#000000" stroke="none">
<path d="M0 5120 l0 -5120 5120 0 5120 0 0 5120 0 5120 -5120 0 -5120 0 0
-5120z m6825 4079 c106 -14 240 -40 252 -47 7 -5 -52 -244 -183 -737 -107
-401 -198 -732 -202 -736 -27 -23 -364 -250 -367 -247 -2 2 40 310 95 683 54
374 97 681 96 682 -1 1 -38 -22 -82 -51 -43 -29 -203 -131 -354 -226 -473
-297 -637 -417 -811 -590 -358 -357 -420 -718 -198 -1162 135 -270 389 -575
759 -913 148 -135 177 -175 291 -404 145 -292 235 -595 269 -911 14 -131 15
-454 0 -580 -61 -546 -262 -1076 -607 -1599 -335 -509 -759 -946 -1209 -1247
l-140 -94 -135 10 c-654 49 -1023 295 -1126 754 -23 101 -22 359 1 491 91 511
433 1139 846 1556 120 121 246 227 256 216 9 -8 113 -350 114 -370 0 -10 -36
-71 -79 -136 -207 -308 -431 -722 -515 -951 -198 -541 -114 -857 263 -987 l95
-32 40 36 c126 111 396 376 516 507 543 591 842 1108 957 1651 25 119 27 149
28 360 0 202 -3 244 -23 344 -67 329 -241 690 -438 905 -306 336 -558 771
-669 1157 -152 527 -113 1056 110 1517 323 667 946 1095 1693 1162 109 10 351
4 457 -11z"/>
</g>
</svg>
